<?xml version="1.0" encoding="UTF-8" standalone="no"?>
<svg
   xmlns:osb="http://www.openswatchbook.org/uri/2009/osb"
   xmlns:dc="http://purl.org/dc/elements/1.1/"
   xmlns:cc="http://creativecommons.org/ns#"
   xmlns:rdf="http://www.w3.org/1999/02/22-rdf-syntax-ns#"
   xmlns:svg="http://www.w3.org/2000/svg"
   xmlns="http://www.w3.org/2000/svg"
   xmlns:xlink="http://www.w3.org/1999/xlink"
   xmlns:sodipodi="http://sodipodi.sourceforge.net/DTD/sodipodi-0.dtd"
   xmlns:inkscape="http://www.inkscape.org/namespaces/inkscape"
   width="24"
   height="24"
   viewBox="0 0 24 24"
   version="1.1"
   id="svg827"
   sodipodi:docname="iconmonstr-cpu-7-mod.svg"
   inkscape:version="0.92.3 (2405546, 2018-03-11)"
   inkscape:export-filename="D:\Dev\Lime\Icons\iconmonstr\iconmonstr-cpu-7-mod.svg.png"
   inkscape:export-xdpi="982.97803"
   inkscape:export-ydpi="982.97803">
  <metadata
     id="metadata833">
    <rdf:RDF>
      <cc:Work
         rdf:about="">
        <dc:format>image/svg+xml</dc:format>
        <dc:type
           rdf:resource="http://purl.org/dc/dcmitype/StillImage" />
        <dc:title></dc:title>
      </cc:Work>
    </rdf:RDF>
  </metadata>
  <defs
     id="defs831">
    <linearGradient
       id="linearGradient1515"
       osb:paint="solid">
      <stop
         style="stop-color:#000000;stop-opacity:1;"
         offset="0"
         id="stop1513" />
    </linearGradient>
    <linearGradient
       inkscape:collect="always"
       id="linearGradient1456"
       osb:paint="gradient">
      <stop
         style="stop-color:#00ed00;stop-opacity:1;"
         offset="0"
         id="stop1452" />
      <stop
         style="stop-color:#000000;stop-opacity:0;"
         offset="1"
         id="stop1454" />
    </linearGradient>
    <linearGradient
       inkscape:collect="always"
       xlink:href="#linearGradient1456"
       id="linearGradient1523"
       x1="6.402678"
       y1="16.975492"
       x2="26.026211"
       y2="22.983051"
       gradientUnits="userSpaceOnUse" />
  </defs>
  <sodipodi:namedview
     pagecolor="#ffffff"
     bordercolor="#666666"
     borderopacity="1"
     objecttolerance="10"
     gridtolerance="10"
     guidetolerance="10"
     inkscape:pageopacity="0"
     inkscape:pageshadow="2"
     inkscape:window-width="1336"
     inkscape:window-height="1028"
     id="namedview829"
     showgrid="false"
     inkscape:zoom="9.8333333"
     inkscape:cx="12"
     inkscape:cy="12"
     inkscape:window-x="160"
     inkscape:window-y="78"
     inkscape:window-maximized="0"
     inkscape:current-layer="svg827" />
  <path
     d="M10 2h-2v-2h2v2zm-8 6h-2v2h2v-2zm0-5c0-.551.448-1 1-1h4v-2h-4c-1.657 0-3 1.343-3 3v4h2v-4zm0 8h-2v2h2v-2zm14-11h-2v2h2v-2zm-3 0h-2v2h2v-2zm-11 14h-2v2h2v-2zm18-2.042h-2.277l-2.36 5.386-2.883-7.93-2.442 5.78-2.071-4.14-1.129 1.966h-2.838v6.98h16v-8.042zm-16 .063h2.259l1.768-3.081 1.935 3.866 2.589-6.126 2.899 7.976 1.62-3.697h2.93v-6.959h-16v8.021zm10 11.979h2v-2h-2v2zm8-11h2v-2h-2v2zm-20 8v-4h-2v4c0 1.657 1.343 3 3 3h4v-2h-4c-.552 0-1-.449-1-1zm20 0c0 .551-.448 1-1 1h-4v2h4c1.657 0 3-1.343 3-3v-4h-2v4zm0-11h2v-2h-2v2zm0 6h2v-2h-2v2zm2-13c0-1.657-1.343-3-3-3h-4v2h4c.552 0 1 .449 1 1v4h2v-4zm-16 21h2v-2h-2v2zm3 0h2v-2h-2v2z"
     id="path825"
     style="stroke:#818387;stroke-opacity:0;fill:url(#linearGradient1523);fill-opacity:1;fill-rule:evenodd;stroke-width:1.0015748;stroke-miterlimit:4;stroke-dasharray:none"
     inkscape:export-xdpi="982.97803"
     inkscape:export-ydpi="982.97803" />
</svg>
