<?xml version="1.0" encoding="UTF-8" standalone="no"?>
<!-- Created with Inkscape (http://www.inkscape.org/) -->

<svg
   xmlns:osb="http://www.openswatchbook.org/uri/2009/osb"
   xmlns:dc="http://purl.org/dc/elements/1.1/"
   xmlns:cc="http://creativecommons.org/ns#"
   xmlns:rdf="http://www.w3.org/1999/02/22-rdf-syntax-ns#"
   xmlns:svg="http://www.w3.org/2000/svg"
   xmlns="http://www.w3.org/2000/svg"
   xmlns:xlink="http://www.w3.org/1999/xlink"
   xmlns:sodipodi="http://sodipodi.sourceforge.net/DTD/sodipodi-0.dtd"
   xmlns:inkscape="http://www.inkscape.org/namespaces/inkscape"
   width="256"
   height="256"
   id="svg2"
   version="1.1"
   inkscape:version="0.48.5 r10040"
   sodipodi:docname="Lime Icon.svg"
   inkscape:export-filename="E:\Starwer\Projects\Software\Lime\Icons\Lime Icon 256.png"
   inkscape:export-xdpi="90"
   inkscape:export-ydpi="90">
  <defs
     id="defs4">
    <linearGradient
       id="linearGradient5246">
      <stop
         style="stop-color:#83df00;stop-opacity:1;"
         offset="0"
         id="stop5248" />
      <stop
         style="stop-color:#69ff00;stop-opacity:0;"
         offset="1"
         id="stop5250" />
    </linearGradient>
    <linearGradient
       id="linearGradient5647"
       osb:paint="solid">
      <stop
         style="stop-color:#83df00;stop-opacity:1;"
         offset="0"
         id="stop5649" />
    </linearGradient>
    <linearGradient
       id="linearGradient3759"
       osb:paint="gradient">
      <stop
         style="stop-color:#000000;stop-opacity:1;"
         offset="0"
         id="stop3761" />
      <stop
         style="stop-color:#000000;stop-opacity:0;"
         offset="1"
         id="stop3763" />
    </linearGradient>
    <linearGradient
       inkscape:collect="always"
       xlink:href="#linearGradient5647"
       id="linearGradient5651"
       x1="12.08902"
       y1="922.16406"
       x2="238.68803"
       y2="922.16406"
       gradientUnits="userSpaceOnUse"
       gradientTransform="translate(2,2)" />
    <linearGradient
       inkscape:collect="always"
       xlink:href="#linearGradient5647-8"
       id="linearGradient5651-9"
       x1="12.08902"
       y1="922.16406"
       x2="238.68803"
       y2="922.16406"
       gradientUnits="userSpaceOnUse" />
    <linearGradient
       id="linearGradient5647-8"
       osb:paint="solid">
      <stop
         style="stop-color:#83df00;stop-opacity:1;"
         offset="0"
         id="stop5649-2" />
    </linearGradient>
    <linearGradient
       gradientTransform="matrix(0.91584549,0,0,0.91645381,10.37769,77.464074)"
       y2="922.16406"
       x2="238.68803"
       y1="922.16406"
       x1="12.08902"
       gradientUnits="userSpaceOnUse"
       id="linearGradient6320"
       xlink:href="#linearGradient5647-8"
       inkscape:collect="always" />
    <linearGradient
       inkscape:collect="always"
       xlink:href="#linearGradient5647-7"
       id="linearGradient5651-1"
       x1="12.08902"
       y1="922.16406"
       x2="238.68803"
       y2="922.16406"
       gradientUnits="userSpaceOnUse" />
    <linearGradient
       id="linearGradient5647-7"
       osb:paint="solid">
      <stop
         style="stop-color:#83df00;stop-opacity:1;"
         offset="0"
         id="stop5649-4" />
    </linearGradient>
  </defs>
  <sodipodi:namedview
     id="base"
     pagecolor="#ffffff"
     bordercolor="#666666"
     borderopacity="1.0"
     inkscape:pageopacity="0.0"
     inkscape:pageshadow="2"
     inkscape:zoom="1.979899"
     inkscape:cx="58.000175"
     inkscape:cy="140.63618"
     inkscape:document-units="px"
     inkscape:current-layer="layer1"
     showgrid="true"
     inkscape:window-width="1822"
     inkscape:window-height="1058"
     inkscape:window-x="90"
     inkscape:window-y="-8"
     inkscape:window-maximized="1"
     inkscape:snap-grids="true">
    <inkscape:grid
       type="xygrid"
       id="grid3968"
       empspacing="5"
       visible="true"
       enabled="true"
       snapvisiblegridlinesonly="true"
       spacingx="0.1px"
       spacingy="0.1px" />
  </sodipodi:namedview>
  <metadata
     id="metadata7">
    <rdf:RDF>
      <cc:Work
         rdf:about="">
        <dc:format>image/svg+xml</dc:format>
        <dc:type
           rdf:resource="http://purl.org/dc/dcmitype/StillImage" />
        <dc:title></dc:title>
      </cc:Work>
    </rdf:RDF>
  </metadata>
  <g
     inkscape:label="Layer 1"
     inkscape:groupmode="layer"
     id="layer1"
     transform="translate(0,-796.36218)">
    <path
       style="fill:none;stroke:url(#linearGradient5651);stroke-width:21.4;stroke-linecap:butt;stroke-linejoin:miter;stroke-miterlimit:4;stroke-opacity:1;stroke-dasharray:none"
       d="m 233.41238,818.05591 c 9.76699,9.75922 -11.22238,36.74845 -7.05139,49.50028 4.17099,12.75184 7.63901,30.80599 7.63901,46.80599 0,14.13378 -1.84825,28.15579 -8.41629,41.8882 -6.56803,13.73242 -15.74533,26.87587 -27.4564,38.59626 -11.71108,11.72036 -24.84723,20.90816 -38.57443,27.48706 -13.72718,6.579 -27.41911,12.0285 -41.55288,12.0285 -16,0 -34.385519,-7.0198 -47.140669,-11.1807 -12.75515,-4.1608 -39.727677,16.85 -49.494665,7.0907 -9.766987,-9.7592 11.22239,-36.74841 7.051396,-49.50025 C 24.245071,968.02011 18,950.36218 18,934.36218 18,920.2284 22.625296,905.81017 29.193334,892.07776 35.76137,878.34534 44.938673,865.20189 56.649746,853.4815 68.360821,841.76112 81.496971,832.57337 95.22416,825.99442 108.95136,819.41547 123.86623,814.36218 138,814.36218 c 16,0 33.16258,6.62361 45.91772,10.78447 12.75515,4.16086 39.72768,-16.84997 49.49466,-7.09074"
       id="path3989"
       inkscape:connector-curvature="0"
       sodipodi:nodetypes="csssssssssssssssc"
       inkscape:export-filename="E:\Starwer\Projects\Software\Lime\Icons\Lime Icon 48.png"
       inkscape:export-xdpi="18.045"
       inkscape:export-ydpi="18.045" />
    <path
       style="fill:#009800;fill-opacity:1;fill-rule:nonzero;stroke:#83df00;stroke-width:2.07142854;stroke-linejoin:miter;stroke-miterlimit:4;stroke-opacity:1;stroke-dasharray:none"
       d=""
       id="path5300"
       inkscape:connector-curvature="0"
       transform="translate(0,796.36218)" />
    <path
       style="fill:#009800;fill-opacity:1;fill-rule:nonzero;stroke:#83df00;stroke-width:2.07142854;stroke-linejoin:miter;stroke-miterlimit:4;stroke-opacity:1;stroke-dasharray:none"
       d=""
       id="path5306"
       inkscape:connector-curvature="0"
       transform="translate(0,796.36218)" />
    <path
       style="fill:#009800;fill-opacity:1;fill-rule:nonzero;stroke:#76c800;stroke-width:6;stroke-linejoin:miter;stroke-miterlimit:4;stroke-opacity:1;stroke-dasharray:none"
       d="m 92.81798,906.33889 c -13.83296,-6.51156 -25.61167,-12.23483 -26.17492,-12.71835 -1.62865,-1.39816 -2.44732,-3.32963 -2.31173,-5.45414 0.0956,-1.49758 0.36877,-2.21458 1.72468,-4.52641 5.21362,-8.88917 15.46141,-20.44364 20.2406,-22.82142 2.97331,-1.4793 5.82946,-0.77646 8.15509,2.00681 0.8847,1.05879 5.65284,9.87568 14.34447,26.52468 14.11645,27.0404 14.03352,26.85194 12.41401,28.21303 -1.63693,1.37572 -1.5644,1.40439 -28.3922,-11.2242 l 0,0 z m 27.80423,9.37251 c -0.0113,-0.92848 -25.46037,-49.79996 -26.94196,-51.73843 -1.35248,-1.76954 -3.32367,-2.77847 -4.9017,-2.50886 -1.76448,0.30146 -3.04621,1.11425 -6.16885,3.91186 -5.42764,4.86268 -10.76656,11.34165 -14.76201,17.91426 -1.95245,3.21182 -2.10385,3.58453 -2.10385,5.17902 0,2.07607 0.66863,3.38124 2.27245,4.43584 0.62166,0.40878 12.11531,5.91029 25.54142,12.22557 21.28652,10.0126 24.58156,11.47521 25.74264,11.42671 1.21199,-0.0506 1.33064,-0.12655 1.32186,-0.84597 l 0,0 z"
       id="path5298"
       inkscape:connector-curvature="0" />
    <path
       style="fill:#009800;fill-opacity:1;fill-rule:nonzero;stroke:#76c800;stroke-width:6;stroke-linejoin:miter;stroke-miterlimit:4;stroke-opacity:1;stroke-dasharray:none"
       d="m 60.15778,943.1796 c -2.51524,-1.36377 -3.38872,-3.97054 -4.20883,-12.56073 -0.43382,-4.54409 -0.18348,-15.85034 0.44557,-20.1238 0.75384,-5.12109 1.69048,-7.17859 3.89926,-8.56544 1.52505,-0.95755 3.4571,-1.24693 5.38132,-0.80602 2.04815,0.46931 51.53144,18.61215 52.38118,19.20534 1.57886,1.10218 1.4906,3.13715 -0.19374,4.46768 -0.44495,0.35146 -12.45354,4.73597 -26.68576,9.74334 -28.40139,9.99256 -28.4822,10.01507 -31.019,8.63963 l 0,0 z m 28.96607,-9.4757 c 13.42363,-4.71882 25.07235,-8.79033 25.88606,-9.04781 1.50008,-0.47468 2.81097,-1.47907 2.81097,-2.15375 0,-0.20357 -0.23301,-0.59001 -0.51781,-0.85879 -0.2848,-0.26878 -11.90227,-4.66197 -25.8166,-9.76264 -24.46443,-8.96808 -25.37368,-9.2742 -27.5692,-9.28166 -2.51938,-0.009 -3.3772,0.42652 -4.58831,2.32718 -2.51497,3.94689 -3.05288,22.77846 -0.94991,33.25537 0.57731,2.87609 2.68679,4.56139 5.29807,4.23268 0.57207,-0.0721 12.02311,-3.99177 25.44673,-8.71058 l 0,0 z"
       id="path5304"
       inkscape:connector-curvature="0" />
    <path
       style="fill:#009800;fill-opacity:1;fill-rule:nonzero;stroke:#76c800;stroke-width:6;stroke-linejoin:miter;stroke-miterlimit:4;stroke-opacity:1;stroke-dasharray:none"
       d="m 87.30997,986.09097 c -2.19303,-0.83732 -6.25607,-4.41424 -11.11539,-9.78543 -5.49177,-6.07026 -11.34714,-14.79433 -11.76486,-17.52877 -0.35532,-2.32596 1.03721,-5.1966 3.15682,-6.50761 1.04812,-0.64828 48.46414,-23.0127 50.81605,-23.96809 1.76982,-0.71893 3.85668,0.58711 3.85668,2.41366 0,0.69533 -3.70737,8.0702 -12.96218,25.78497 -7.1292,13.6461 -13.31796,25.38015 -13.75282,26.07566 -2.04099,3.26435 -5.27552,4.64532 -8.2343,3.51561 z m 5.17465,-2.19908 c 0.5808,-0.47331 1.37998,-1.31883 1.77595,-1.8789 0.39597,-0.56009 6.53361,-12.15072 13.6392,-25.75697 13.7133,-26.25912 13.76375,-26.37228 11.84441,-26.56582 -1.32326,-0.13344 -51.1154,23.28822 -52.45282,24.6732 -1.15232,1.19331 -1.69958,2.90395 -1.42652,4.45906 0.23793,1.35511 3.55975,6.83915 6.59347,10.88529 4.37716,5.83791 11.09319,12.64159 14.36478,14.55226 1.74105,1.0168 4.1547,0.85985 5.66153,-0.36812 l 0,0 z"
       id="path5308"
       inkscape:connector-curvature="0" />
    <path
       style="fill:#009800;fill-opacity:1;fill-rule:nonzero;stroke:#76c800;stroke-width:6;stroke-linejoin:miter;stroke-miterlimit:4;stroke-opacity:1;stroke-dasharray:none"
       d="m 119.7098,998.5355 c -4.50375,-0.4683 -8.34023,-1.22702 -9.72794,-1.92397 -2.79679,-1.40461 -4.22102,-4.18188 -3.89081,-7.58705 0.10798,-1.11336 3.42215,-11.90919 8.92872,-29.08503 6.79699,-21.20087 8.9307,-27.50906 9.53307,-28.18386 1.01019,-1.13165 2.15702,-1.13165 3.34082,0 0.823,0.78673 1.73749,3.55945 9.61883,29.16406 6.76498,21.97782 8.70845,28.64757 8.70522,29.87539 -0.008,3.1177 -1.67271,5.44055 -4.5232,6.31218 -4.1237,1.26098 -16.10622,2.03938 -21.98471,1.42828 l 0,0 z m 13.836,-1.58768 c 4.52318,-0.48436 8.25356,-1.22418 9.21239,-1.82704 1.32493,-0.83303 2.06882,-2.3831 2.05015,-4.2719 -0.0124,-1.2585 -1.9606,-7.96235 -8.4678,-29.13886 -4.6484,-15.12739 -8.64352,-27.85999 -8.87804,-28.29468 -0.24549,-0.45505 -0.75248,-0.83313 -1.19502,-0.89118 -0.65761,-0.0863 -0.84857,0.0964 -1.32198,1.26456 -0.77189,1.90462 -16.77527,51.92318 -17.20389,53.7707 -0.46648,2.01082 -0.22861,4.77928 0.50324,5.8569 0.90996,1.33984 3.31992,2.47844 6.15644,2.90865 6.39718,0.97021 13.686,1.20736 19.14451,0.62285 l 0,0 z"
       id="path5310"
       inkscape:connector-curvature="0" />
    <path
       style="fill:#009800;fill-opacity:1;fill-rule:nonzero;stroke:#76c800;stroke-width:6;stroke-linejoin:miter;stroke-miterlimit:4;stroke-opacity:1;stroke-dasharray:none"
       d="m 160.6507,985.77233 c -1.40001,-0.54944 -2.94072,-1.79714 -3.92946,-3.18216 -1.01108,-1.4163 -26.73571,-50.6628 -26.95737,-51.60642 -0.4176,-1.77771 0.83904,-3.25969 2.76297,-3.25842 0.45561,3.1e-4 12.33345,5.3999 26.39519,11.9991 26.26322,12.32537 26.90061,12.6643 27.98959,14.88332 0.6346,1.29312 0.81163,2.95623 0.46223,4.34255 -0.37644,1.49366 -4.36329,8.0011 -7.13434,11.64486 -4.27368,5.61961 -11.23285,12.59355 -14.38794,14.41847 -1.81346,1.04893 -3.74382,1.33052 -5.20087,0.7587 l 0,0 z m 4.91314,-2.20468 c 2.05325,-1.28593 7.71912,-6.68707 10.59442,-10.09944 5.19883,-6.16991 9.69046,-13.18045 9.93602,-15.50818 0.15394,-1.45923 -0.54154,-3.35303 -1.61076,-4.38613 -0.31235,-0.30178 -11.94399,-5.88997 -25.84809,-12.41819 -26.82872,-12.59656 -27.239,-12.75959 -27.4347,-10.90179 -0.0585,0.55535 3.78687,8.19779 12.93282,25.70323 7.15884,13.70208 13.42142,25.4597 13.91684,26.128 1.92034,2.59058 4.82809,3.16431 7.51345,1.4825 l 0,0 z"
       id="path5312"
       inkscape:connector-curvature="0" />
    <path
       style="fill:#009800;fill-opacity:1;fill-rule:nonzero;stroke:#76c800;stroke-width:6;stroke-linejoin:miter;stroke-miterlimit:4;stroke-opacity:1;stroke-dasharray:none"
       d="m 182.47336,942.72064 c -2.7666,-0.97955 -14.75023,-5.1897 -26.63031,-9.35589 -20.13174,-7.05994 -21.66551,-7.64851 -22.56179,-8.65771 -1.4296,-1.60971 -1.21472,-3.13821 0.58063,-4.13015 1.00287,-0.55409 48.21977,-17.92976 50.68271,-18.65107 0.8137,-0.23831 2.31697,-0.43497 3.34058,-0.43704 5.6397,-0.0113 7.54593,4.56829 7.95965,19.12282 0.2413,8.48853 -0.70632,17.83765 -2.08152,20.53625 -0.82235,1.6137 -2.87708,2.98124 -4.79699,3.19268 -1.22747,0.13518 -2.27203,-0.12542 -6.49296,-1.61989 z m 7.74791,-0.1573 c 1.22943,-0.49631 2.42359,-1.8463 2.76278,-3.12334 0.98621,-3.71295 1.32075,-7.90104 1.31461,-16.45733 -0.007,-9.62607 -0.44536,-13.92273 -1.72567,-16.91071 -1.32019,-3.08102 -3.91909,-3.92711 -8.02839,-2.61371 -4.37339,1.39779 -49.40643,17.98887 -50.07978,18.45039 -0.86437,0.59245 -0.84881,1.56358 0.035,2.18227 1.1494,0.80466 52.60961,18.78518 53.79819,18.79743 0.59968,0.006 1.46516,-0.14007 1.9233,-0.325 l 0,0 z"
       id="path5314"
       inkscape:connector-curvature="0" />
    <path
       style="fill:#009800;fill-opacity:1;fill-rule:nonzero;stroke:#76c800;stroke-width:6;stroke-linejoin:miter;stroke-miterlimit:4;stroke-opacity:1;stroke-dasharray:none"
       d="m 130.91187,918.38763 c -1.20818,-0.5449 -1.70014,-1.76483 -1.25808,-3.11971 0.17395,-0.53318 6.13771,-12.13917 13.25277,-25.79111 11.20403,-21.49756 13.15738,-25.06113 14.58595,-26.60962 2.40017,-2.60165 4.71702,-3.13634 7.5232,-1.73623 6.91527,3.45029 22.33987,22.61077 22.33987,27.75067 0,2.52978 -1.42653,4.7981 -3.8466,6.11646 -2.85462,1.55509 -49.9091,23.48404 -50.74553,23.64911 -0.48823,0.0964 -1.32144,-0.0204 -1.85158,-0.25957 l 0,0 z m 26.58504,-12.6509 c 13.53862,-6.35546 25.12505,-11.83303 25.74764,-12.17238 2.57862,-1.40555 3.34337,-4.46375 1.86153,-7.44414 -1.11565,-2.24385 -4.30902,-7.05782 -6.76889,-10.20405 -4.05546,-5.18699 -10.8255,-11.87541 -13.49087,-13.32824 -2.35368,-1.28292 -5.27689,-0.52382 -7.01571,1.82185 -1.16522,1.5719 -26.75501,50.54851 -26.93412,51.54954 -0.15233,0.85137 0.31887,1.32041 1.33407,1.32796 0.35787,0.003 11.72773,-5.19509 25.26635,-11.55054 l 0,0 z"
       id="path5316"
       inkscape:connector-curvature="0" />
    <path
       style="fill:#009800;fill-opacity:1;fill-rule:nonzero;stroke:#76c800;stroke-width:6;stroke-linejoin:miter;stroke-miterlimit:4;stroke-opacity:1;stroke-dasharray:none"
       d="m 125.04944,915.40642 c -0.33693,-0.14569 -0.8168,-0.59903 -1.0664,-1.00742 -0.72229,-1.18186 -17.68033,-54.299 -17.99514,-56.36566 -0.71012,-4.66173 1.55227,-7.94706 6.19723,-8.99932 9.08767,-2.0587 26.68188,-1.48392 30.90688,1.00971 0.70852,0.41817 1.53976,1.31058 2.06213,2.21388 1.62795,2.81506 1.83753,1.92184 -7.74099,32.99273 -4.72495,15.32689 -8.82235,28.2446 -9.10532,28.70602 -0.47868,0.78055 -1.86769,1.78086 -2.40919,1.73501 -0.13013,-0.011 -0.51228,-0.13925 -0.8492,-0.28495 l 0,0 z m 1.86356,-1.98704 c 0.39613,-0.45864 3.64478,-10.53803 9.14501,-28.37371 9.23961,-29.96142 9.29256,-30.17632 7.92082,-32.13936 -1.12307,-1.60715 -1.99514,-2.03465 -5.42662,-2.66019 -7.21079,-1.3145 -16.97778,-1.37245 -24.12765,-0.14319 -4.5301,0.77885 -5.94083,1.63778 -6.84513,4.16771 -0.3573,0.99962 -0.43971,1.85058 -0.30117,3.11 0.19853,1.80474 17.03405,54.76674 17.81355,56.03874 0.23975,0.39122 0.60936,0.71131 0.82136,0.71131 0.21198,0 0.66191,-0.32009 0.99983,-0.71131 z"
       id="path5318"
       inkscape:connector-curvature="0" />
  </g>
</svg>
