<?xml version="1.0" encoding="UTF-8" standalone="no"?>
<!-- Created with Inkscape (http://www.inkscape.org/) -->

<svg
   xmlns:osb="http://www.openswatchbook.org/uri/2009/osb"
   xmlns:dc="http://purl.org/dc/elements/1.1/"
   xmlns:cc="http://creativecommons.org/ns#"
   xmlns:rdf="http://www.w3.org/1999/02/22-rdf-syntax-ns#"
   xmlns:svg="http://www.w3.org/2000/svg"
   xmlns="http://www.w3.org/2000/svg"
   xmlns:xlink="http://www.w3.org/1999/xlink"
   xmlns:sodipodi="http://sodipodi.sourceforge.net/DTD/sodipodi-0.dtd"
   xmlns:inkscape="http://www.inkscape.org/namespaces/inkscape"
   width="256"
   height="256"
   id="svg2"
   version="1.1"
   inkscape:version="0.48.5 r10040"
   sodipodi:docname="Lime Icon - Copy.svg"
   inkscape:export-filename="E:\Starwer\Projects\Software\Lime\Icons\Lime Icon 256.png"
   inkscape:export-xdpi="90"
   inkscape:export-ydpi="90">
  <defs
     id="defs4">
    <linearGradient
       id="linearGradient5246">
      <stop
         style="stop-color:#83df00;stop-opacity:1;"
         offset="0"
         id="stop5248" />
      <stop
         style="stop-color:#69ff00;stop-opacity:0;"
         offset="1"
         id="stop5250" />
    </linearGradient>
    <linearGradient
       id="linearGradient5647"
       osb:paint="solid">
      <stop
         style="stop-color:#83df00;stop-opacity:1;"
         offset="0"
         id="stop5649" />
    </linearGradient>
    <linearGradient
       id="linearGradient3759"
       osb:paint="gradient">
      <stop
         style="stop-color:#000000;stop-opacity:1;"
         offset="0"
         id="stop3761" />
      <stop
         style="stop-color:#000000;stop-opacity:0;"
         offset="1"
         id="stop3763" />
    </linearGradient>
    <linearGradient
       inkscape:collect="always"
       xlink:href="#linearGradient5647-8"
       id="linearGradient5651-9"
       x1="12.08902"
       y1="922.16406"
       x2="238.68803"
       y2="922.16406"
       gradientUnits="userSpaceOnUse" />
    <linearGradient
       id="linearGradient5647-8"
       osb:paint="solid">
      <stop
         style="stop-color:#83df00;stop-opacity:1;"
         offset="0"
         id="stop5649-2" />
    </linearGradient>
    <linearGradient
       gradientTransform="matrix(0.91584549,0,0,0.91645381,10.37769,77.464074)"
       y2="922.16406"
       x2="238.68803"
       y1="922.16406"
       x1="12.08902"
       gradientUnits="userSpaceOnUse"
       id="linearGradient6320"
       xlink:href="#linearGradient5647-8"
       inkscape:collect="always" />
    <linearGradient
       inkscape:collect="always"
       xlink:href="#linearGradient5647-7"
       id="linearGradient5651-1"
       x1="12.08902"
       y1="922.16406"
       x2="238.68803"
       y2="922.16406"
       gradientUnits="userSpaceOnUse" />
    <linearGradient
       id="linearGradient5647-7"
       osb:paint="solid">
      <stop
         style="stop-color:#83df00;stop-opacity:1;"
         offset="0"
         id="stop5649-4" />
    </linearGradient>
    <clipPath
       clipPathUnits="userSpaceOnUse"
       id="clipPath3990">
      <path
         style="fill:#000000;fill-opacity:1;fill-rule:nonzero;stroke:#4e8500;stroke-width:0;stroke-linejoin:round;stroke-miterlimit:4;stroke-opacity:1;stroke-dasharray:none"
         d="m 0,796.36218 0,256.00002 260,0 0,-256.00002 -260,0 z m 25.75,32 c 2.53711,12.0294 11.8625,32 23.0625,42 12.16925,1.70916 34.7075,6 47.1875,10 -34.56,12 -58.09,16 -78.25,48 -8.8,-40 -3.68,-64 8,-100 z m 210.25,88 c 11.83573,39.20913 8.57786,63.5241 -0.3125,100.31252 -3.45038,-11.8 -14.25497,-30.98033 -26.1875,-40.09377 -12.26437,-0.77273 -35.0942,-3.34193 -47.84375,-6.375 33.54016,-14.60999 56.69212,-20.3946 74.34375,-53.84375 z"
         id="path3992"
         inkscape:connector-curvature="0" />
    </clipPath>
    <linearGradient
       inkscape:collect="always"
       xlink:href="#linearGradient5647"
       id="linearGradient3994"
       gradientUnits="userSpaceOnUse"
       gradientTransform="translate(2,2)"
       x1="14"
       y1="934.36218"
       x2="238.68803"
       y2="922.16406" />
  </defs>
  <sodipodi:namedview
     id="base"
     pagecolor="#ffffff"
     bordercolor="#666666"
     borderopacity="1.0"
     inkscape:pageopacity="0.0"
     inkscape:pageshadow="2"
     inkscape:zoom="2.8"
     inkscape:cx="71.837117"
     inkscape:cy="117.1127"
     inkscape:document-units="px"
     inkscape:current-layer="layer1"
     showgrid="true"
     inkscape:window-width="1822"
     inkscape:window-height="1058"
     inkscape:window-x="90"
     inkscape:window-y="-8"
     inkscape:window-maximized="1"
     inkscape:snap-grids="true">
    <inkscape:grid
       type="xygrid"
       id="grid3968"
       empspacing="5"
       visible="true"
       enabled="true"
       snapvisiblegridlinesonly="true"
       spacingx="0.1px"
       spacingy="0.1px" />
  </sodipodi:namedview>
  <metadata
     id="metadata7">
    <rdf:RDF>
      <cc:Work
         rdf:about="">
        <dc:format>image/svg+xml</dc:format>
        <dc:type
           rdf:resource="http://purl.org/dc/dcmitype/StillImage" />
        <dc:title />
      </cc:Work>
    </rdf:RDF>
  </metadata>
  <g
     inkscape:label="Layer 1"
     inkscape:groupmode="layer"
     id="layer1"
     transform="translate(0,-796.36218)">
    <path
       style="fill:#009800;fill-opacity:1;fill-rule:nonzero;stroke:#76c800;stroke-width:6;stroke-linejoin:miter;stroke-miterlimit:4;stroke-opacity:1;stroke-dasharray:none"
       d="m 92.81798,898.33889 c -13.83296,-6.51156 -25.61167,-12.23483 -26.17492,-12.71835 -1.62865,-1.39816 -2.44732,-3.32963 -2.31173,-5.45414 0.0956,-1.49758 0.36877,-2.21458 1.72468,-4.52641 5.21362,-8.88917 15.46141,-20.44364 20.2406,-22.82142 2.97331,-1.4793 5.82946,-0.77646 8.15509,2.00681 0.8847,1.05879 5.65284,9.87568 14.34447,26.52468 14.11645,27.0404 14.03352,26.85194 12.41401,28.21303 -1.63693,1.37572 -1.5644,1.40439 -28.3922,-11.2242 l 0,0 z m 27.80423,9.37251 c -0.0113,-0.92848 -25.46037,-49.79996 -26.94196,-51.73843 -1.35248,-1.76954 -3.32367,-2.77847 -4.9017,-2.50886 -1.76448,0.30146 -3.04621,1.11425 -6.16885,3.91186 -5.42764,4.86268 -10.76656,11.34165 -14.76201,17.91426 -1.95245,3.21182 -2.10385,3.58453 -2.10385,5.17902 0,2.07607 0.66863,3.38124 2.27245,4.43584 0.62166,0.40878 12.11531,5.91029 25.54142,12.22557 21.28652,10.0126 24.58156,11.47521 25.74264,11.42671 1.21199,-0.0506 1.33064,-0.12655 1.32186,-0.84597 l 0,0 z"
       id="path5298"
       inkscape:connector-curvature="0" />
    <path
       style="fill:#009800;fill-opacity:1;fill-rule:nonzero;stroke:#76c800;stroke-width:6;stroke-linejoin:miter;stroke-miterlimit:4;stroke-opacity:1;stroke-dasharray:none"
       d="m 60.15778,935.1796 c -2.51524,-1.36377 -3.38872,-3.97054 -4.20883,-12.56073 -0.43382,-4.54409 -0.18348,-15.85034 0.44557,-20.1238 0.75384,-5.12109 1.69048,-7.17859 3.89926,-8.56544 1.52505,-0.95755 3.4571,-1.24693 5.38132,-0.80602 2.04815,0.46931 51.53144,18.61215 52.38118,19.20534 1.57886,1.10218 1.4906,3.13715 -0.19374,4.46768 -0.44495,0.35146 -12.45354,4.73597 -26.68576,9.74334 -28.40139,9.99256 -28.4822,10.01507 -31.019,8.63963 l 0,0 z m 28.96607,-9.4757 c 13.42363,-4.71882 25.07235,-8.79033 25.88606,-9.04781 1.50008,-0.47468 2.81097,-1.47907 2.81097,-2.15375 0,-0.20357 -0.23301,-0.59001 -0.51781,-0.85879 -0.2848,-0.26878 -11.90227,-4.66197 -25.8166,-9.76264 -24.46443,-8.96808 -25.37368,-9.2742 -27.5692,-9.28166 -2.51938,-0.009 -3.3772,0.42652 -4.58831,2.32718 -2.51497,3.94689 -3.05288,22.77846 -0.94991,33.25537 0.57731,2.87609 2.68679,4.56139 5.29807,4.23268 0.57207,-0.0721 12.02311,-3.99177 25.44673,-8.71058 l 0,0 z"
       id="path5304"
       inkscape:connector-curvature="0" />
    <path
       style="fill:#009800;fill-opacity:1;fill-rule:nonzero;stroke:#76c800;stroke-width:6;stroke-linejoin:miter;stroke-miterlimit:4;stroke-opacity:1;stroke-dasharray:none"
       d="m 87.30997,978.09097 c -2.19303,-0.83732 -6.25607,-4.41424 -11.11539,-9.78543 -5.49177,-6.07026 -11.34714,-14.79433 -11.76486,-17.52877 -0.35532,-2.32596 1.03721,-5.1966 3.15682,-6.50761 1.04812,-0.64828 48.46414,-23.0127 50.81605,-23.96809 1.76982,-0.71893 3.85668,0.58711 3.85668,2.41366 0,0.69533 -3.70737,8.0702 -12.96218,25.78497 -7.1292,13.6461 -13.31796,25.38015 -13.75282,26.07566 -2.04099,3.26435 -5.27552,4.64532 -8.2343,3.51561 z m 5.17465,-2.19908 c 0.5808,-0.47331 1.37998,-1.31883 1.77595,-1.8789 0.39597,-0.56009 6.53361,-12.15072 13.6392,-25.75697 13.7133,-26.25912 13.76375,-26.37228 11.84441,-26.56582 -1.32326,-0.13344 -51.1154,23.28822 -52.45282,24.6732 -1.15232,1.19331 -1.69958,2.90395 -1.42652,4.45906 0.23793,1.35511 3.55975,6.83915 6.59347,10.88529 4.37716,5.83791 11.09319,12.64159 14.36478,14.55226 1.74105,1.0168 4.1547,0.85985 5.66153,-0.36812 l 0,0 z"
       id="path5308"
       inkscape:connector-curvature="0" />
    <path
       style="fill:#009800;fill-opacity:1;fill-rule:nonzero;stroke:#76c800;stroke-width:6;stroke-linejoin:miter;stroke-miterlimit:4;stroke-opacity:1;stroke-dasharray:none"
       d="m 119.7098,990.5355 c -4.50375,-0.4683 -8.34023,-1.22702 -9.72794,-1.92397 -2.79679,-1.40461 -4.22102,-4.18188 -3.89081,-7.58705 0.10798,-1.11336 3.42215,-11.90919 8.92872,-29.08503 6.79699,-21.20087 8.9307,-27.50906 9.53307,-28.18386 1.01019,-1.13165 2.15702,-1.13165 3.34082,0 0.823,0.78673 1.73749,3.55945 9.61883,29.16406 6.76498,21.97782 8.70845,28.64757 8.70522,29.87539 -0.008,3.1177 -1.67271,5.44055 -4.5232,6.31218 -4.1237,1.26098 -16.10622,2.03938 -21.98471,1.42828 l 0,0 z m 13.836,-1.58768 c 4.52318,-0.48436 8.25356,-1.22418 9.21239,-1.82704 1.32493,-0.83303 2.06882,-2.3831 2.05015,-4.2719 -0.0124,-1.2585 -1.9606,-7.96235 -8.4678,-29.13886 -4.6484,-15.12739 -8.64352,-27.85999 -8.87804,-28.29468 -0.24549,-0.45505 -0.75248,-0.83313 -1.19502,-0.89118 -0.65761,-0.0863 -0.84857,0.0964 -1.32198,1.26456 -0.77189,1.90462 -16.77527,51.92318 -17.20389,53.7707 -0.46648,2.01082 -0.22861,4.77928 0.50324,5.8569 0.90996,1.33984 3.31992,2.47844 6.15644,2.90865 6.39718,0.97021 13.686,1.20736 19.14451,0.62285 l 0,0 z"
       id="path5310"
       inkscape:connector-curvature="0" />
    <path
       style="fill:#009800;fill-opacity:1;fill-rule:nonzero;stroke:#76c800;stroke-width:6;stroke-linejoin:miter;stroke-miterlimit:4;stroke-opacity:1;stroke-dasharray:none"
       d="m 160.6507,977.77233 c -1.40001,-0.54944 -2.94072,-1.79714 -3.92946,-3.18216 -1.01108,-1.4163 -26.73571,-50.6628 -26.95737,-51.60642 -0.4176,-1.77771 0.83904,-3.25969 2.76297,-3.25842 0.45561,3.1e-4 12.33345,5.3999 26.39519,11.9991 26.26322,12.32537 26.90061,12.6643 27.98959,14.88332 0.6346,1.29312 0.81163,2.95623 0.46223,4.34255 -0.37644,1.49366 -4.36329,8.0011 -7.13434,11.64486 -4.27368,5.61961 -11.23285,12.59355 -14.38794,14.41847 -1.81346,1.04893 -3.74382,1.33052 -5.20087,0.7587 l 0,0 z m 4.91314,-2.20468 c 2.05325,-1.28593 7.71912,-6.68707 10.59442,-10.09944 5.19883,-6.16991 9.69046,-13.18045 9.93602,-15.50818 0.15394,-1.45923 -0.54154,-3.35303 -1.61076,-4.38613 -0.31235,-0.30178 -11.94399,-5.88997 -25.84809,-12.41819 -26.82872,-12.59656 -27.239,-12.75959 -27.4347,-10.90179 -0.0585,0.55535 3.78687,8.19779 12.93282,25.70323 7.15884,13.70208 13.42142,25.4597 13.91684,26.128 1.92034,2.59058 4.82809,3.16431 7.51345,1.4825 l 0,0 z"
       id="path5312"
       inkscape:connector-curvature="0" />
    <path
       style="fill:#009800;fill-opacity:1;fill-rule:nonzero;stroke:#76c800;stroke-width:6;stroke-linejoin:miter;stroke-miterlimit:4;stroke-opacity:1;stroke-dasharray:none"
       d="m 182.47336,934.72064 c -2.7666,-0.97955 -14.75023,-5.1897 -26.63031,-9.35589 -20.13174,-7.05994 -21.66551,-7.64851 -22.56179,-8.65771 -1.4296,-1.60971 -1.21472,-3.13821 0.58063,-4.13015 1.00287,-0.55409 48.21977,-17.92976 50.68271,-18.65107 0.8137,-0.23831 2.31697,-0.43497 3.34058,-0.43704 5.6397,-0.0113 7.54593,4.56829 7.95965,19.12282 0.2413,8.48853 -0.70632,17.83765 -2.08152,20.53625 -0.82235,1.6137 -2.87708,2.98124 -4.79699,3.19268 -1.22747,0.13518 -2.27203,-0.12542 -6.49296,-1.61989 z m 7.74791,-0.1573 c 1.22943,-0.49631 2.42359,-1.8463 2.76278,-3.12334 0.98621,-3.71295 1.32075,-7.90104 1.31461,-16.45733 -0.007,-9.62607 -0.44536,-13.92273 -1.72567,-16.91071 -1.32019,-3.08102 -3.91909,-3.92711 -8.02839,-2.61371 -4.37339,1.39779 -49.40643,17.98887 -50.07978,18.45039 -0.86437,0.59245 -0.84881,1.56358 0.035,2.18227 1.1494,0.80466 52.60961,18.78518 53.79819,18.79743 0.59968,0.006 1.46516,-0.14007 1.9233,-0.325 l 0,0 z"
       id="path5314"
       inkscape:connector-curvature="0" />
    <path
       style="fill:#009800;fill-opacity:1;fill-rule:nonzero;stroke:#76c800;stroke-width:6;stroke-linejoin:miter;stroke-miterlimit:4;stroke-opacity:1;stroke-dasharray:none"
       d="m 130.91187,910.38763 c -1.20818,-0.5449 -1.70014,-1.76483 -1.25808,-3.11971 0.17395,-0.53318 6.13771,-12.13917 13.25277,-25.79111 11.20403,-21.49756 13.15738,-25.06113 14.58595,-26.60962 2.40017,-2.60165 4.71702,-3.13634 7.5232,-1.73623 6.91527,3.45029 22.33987,22.61077 22.33987,27.75067 0,2.52978 -1.42653,4.7981 -3.8466,6.11646 -2.85462,1.55509 -49.9091,23.48404 -50.74553,23.64911 -0.48823,0.0964 -1.32144,-0.0204 -1.85158,-0.25957 l 0,0 z m 26.58504,-12.6509 c 13.53862,-6.35546 25.12505,-11.83303 25.74764,-12.17238 2.57862,-1.40555 3.34337,-4.46375 1.86153,-7.44414 -1.11565,-2.24385 -4.30902,-7.05782 -6.76889,-10.20405 -4.05546,-5.18699 -10.8255,-11.87541 -13.49087,-13.32824 -2.35368,-1.28292 -5.27689,-0.52382 -7.01571,1.82185 -1.16522,1.5719 -26.75501,50.54851 -26.93412,51.54954 -0.15233,0.85137 0.31887,1.32041 1.33407,1.32796 0.35787,0.003 11.72773,-5.19509 25.26635,-11.55054 l 0,0 z"
       id="path5316"
       inkscape:connector-curvature="0" />
    <path
       style="fill:#009800;fill-opacity:1;fill-rule:nonzero;stroke:#76c800;stroke-width:6;stroke-linejoin:miter;stroke-miterlimit:4;stroke-opacity:1;stroke-dasharray:none"
       d="m 125.04944,907.40642 c -0.33693,-0.14569 -0.8168,-0.59903 -1.0664,-1.00742 -0.72229,-1.18186 -17.68033,-54.299 -17.99514,-56.36566 -0.71012,-4.66173 1.55227,-7.94706 6.19723,-8.99932 9.08767,-2.0587 26.68188,-1.48392 30.90688,1.00971 0.70852,0.41817 1.53976,1.31058 2.06213,2.21388 1.62795,2.81506 1.83753,1.92184 -7.74099,32.99273 -4.72495,15.32689 -8.82235,28.2446 -9.10532,28.70602 -0.47868,0.78055 -1.86769,1.78086 -2.40919,1.73501 -0.13013,-0.011 -0.51228,-0.13925 -0.8492,-0.28495 l 0,0 z m 1.86356,-1.98704 c 0.39613,-0.45864 3.64478,-10.53803 9.14501,-28.37371 9.23961,-29.96142 9.29256,-30.17632 7.92082,-32.13936 -1.12307,-1.60715 -1.99514,-2.03465 -5.42662,-2.66019 -7.21079,-1.3145 -16.97778,-1.37245 -24.12765,-0.14319 -4.5301,0.77885 -5.94083,1.63778 -6.84513,4.16771 -0.3573,0.99962 -0.43971,1.85058 -0.30117,3.11 0.19853,1.80474 17.03405,54.76674 17.81355,56.03874 0.23975,0.39122 0.60936,0.71131 0.82136,0.71131 0.21198,0 0.66191,-0.32009 0.99983,-0.71131 z"
       id="path5318"
       inkscape:connector-curvature="0" />
    <path
       style="fill:#009800;fill-opacity:1;fill-rule:nonzero;stroke:#83df00;stroke-width:2.07142854;stroke-linejoin:miter;stroke-miterlimit:4;stroke-opacity:1;stroke-dasharray:none"
       d=""
       id="path5300"
       inkscape:connector-curvature="0"
       transform="translate(0,796.36218)" />
    <path
       style="fill:#009800;fill-opacity:1;fill-rule:nonzero;stroke:#83df00;stroke-width:2.07142854;stroke-linejoin:miter;stroke-miterlimit:4;stroke-opacity:1;stroke-dasharray:none"
       d=""
       id="path5306"
       inkscape:connector-curvature="0"
       transform="translate(0,796.36218)" />
    <path
       style="font-size:medium;font-style:normal;font-variant:normal;font-weight:normal;font-stretch:normal;text-indent:0;text-align:start;text-decoration:none;line-height:normal;letter-spacing:normal;word-spacing:normal;text-transform:none;direction:ltr;block-progression:tb;writing-mode:lr-tb;text-anchor:start;baseline-shift:baseline;color:#000000;fill:url(#linearGradient3994);fill-opacity:1;stroke:none;stroke-width:21.39999962;marker:none;visibility:visible;display:inline;overflow:visible;enable-background:accumulate;font-family:Sans;-inkscape-font-specification:Sans"
       d="m 138,803.65625 c -16.68417,0 -32.88074,5.72595 -47.40625,12.6875 -14.829294,7.10715 -28.937393,16.98991 -41.5,29.5625 C 36.531145,858.47885 23.095359,885.52724 16,900.36218 9.017766,914.96059 7.3125,917.90683 7.3125,934.375 c 0,18.78426 6.840243,37.19234 10.9375,49.71875 -0.128314,-0.39229 0.122329,1.96035 -0.875,5.59375 -0.997329,3.6334 -2.8088,8.32703 -4.625,13.2813 -1.8162,4.9542 -3.6954547,10.1222 -4.4375,15.875 -0.7420453,5.7527 -0.041608,13.4628 5.5,19 5.541576,5.5372 13.247833,6.2153 19,5.4687 5.752167,-0.7466 10.922217,-2.6174 15.875,-4.4375 4.952783,-1.8201 9.64863,-3.656 13.28125,-4.6562 3.63262,-1.0003 5.95489,-0.7471 5.5625,-0.875 12.263942,4.0006 31.339089,11.7187 50.46875,11.7187 16.88414,0 32.03633,-6.3115 46.1875,-13.0937 14.82935,-7.1072 28.9374,-16.99 41.5,-29.5626 12.5626,-12.57255 22.46715,-26.69625 29.5625,-41.5312 7.45421,-15.58522 9.4375,-31.43341 9.4375,-46.5 0,-17.54616 -3.60236,-36.23379 -8.15625,-50.15625 0.12832,0.3923 -0.12233,-1.92909 0.875,-5.5625 0.99733,-3.63341 2.8088,-8.32703 4.625,-13.28125 1.8162,-4.95422 3.69546,-10.1535 4.4375,-15.90625 0.74204,-5.75275 0.0416,-13.43156 -5.5,-18.96875 -5.5416,-5.5372 -13.24784,-6.21537 -19,-5.46875 -5.75216,0.74662 -10.92222,2.61736 -15.875,4.4375 -4.95278,1.82014 -9.64864,3.62478 -13.28125,4.625 -3.63261,1.00022 -5.95489,0.747 -5.5625,0.875 -12.26259,-4.00018 -30.29697,-11.3125 -49.25,-11.3125 z m 0,21.40625 c 13.04697,0 29.34606,5.92846 42.59375,10.25 6.76997,2.20843 12.58891,0.9016 17.90625,-0.5625 5.31734,-1.4641 10.36313,-3.52619 14.96875,-5.21875 4.60562,-1.69256 8.79925,-2.96315 11.25,-3.28125 0.39404,-0.0512 0.31691,-0.0393 0.5625,-0.0625 -0.0231,0.24755 -0.0108,0.16134 -0.0625,0.5625 -0.31615,2.45101 -1.59235,6.64304 -3.28125,11.25 -1.6889,4.60696 -3.72763,9.65025 -5.1875,14.96875 -1.45987,5.3185 -2.77631,11.13804 -0.5625,17.90625 3.78809,11.58122 7.125,29.04616 7.125,43.5 0,13.20097 -1.69313,25.3704 -7.375,37.25 -6.04071,12.62989 -14.51546,24.78807 -25.375,35.65625 -10.85956,10.86817 -22.99995,19.35555 -35.625,25.40625 -13.30319,6.3758 -25.5541,10.9687 -36.9375,10.9687 -12.87034,0 -30.566142,-6.3351 -43.8125,-10.6562 -6.769965,-2.2084 -12.588917,-0.8703 -17.90625,0.5938 -5.317333,1.464 -10.363134,3.4949 -14.96875,5.1874 -4.605616,1.6926 -8.799254,2.9945 -11.25,3.3126 -0.415669,0.054 -0.342475,0.039 -0.59375,0.062 0.02307,-0.2477 0.01067,-0.1606 0.0625,-0.5624 0.316154,-2.4511 1.623603,-6.6743 3.3125,-11.2813 1.688897,-4.607 3.727631,-9.6502 5.1875,-14.96875 1.459869,-5.3185 2.776311,-11.13804 0.5625,-17.90625 -4.244725,-12.97727 -9.90625,-29.84676 -9.90625,-43.0625 0,-11.79939 4.002408,-24.82109 10.15625,-37.6875 6.040713,-12.6299 14.515459,-24.78807 25.375,-35.65625 10.859543,-10.86817 22.999916,-19.32425 35.625,-25.375 C 112.77264,829.4599 126.41663,825.0625 138,825.0625 z"
       id="path3989"
       inkscape:connector-curvature="0"
       clip-path="url(#clipPath3990)"
       sodipodi:nodetypes="ssssscssssssccssssscssssssscssssscccsssssssssccccssssssscs" />
    <path
       style="fill:none;stroke:#60a300;stroke-width:13.30000019;stroke-linecap:butt;stroke-linejoin:round;stroke-miterlimit:4;stroke-opacity:1;stroke-dasharray:none"
       d="m 228.1297,1009.8638 c 12.30894,-37.4231 17.86168,-62.10444 9.8703,-101.50162 -20.66976,34.2456 -44.14761,40.63236 -78.76265,56.18225 12.34066,2.77637 34.69574,4.83563 46.77098,5.33631 10.95247,8.94666 19.82689,28.12392 22.12137,39.98306 z"
       id="path3016-5"
       inkscape:connector-curvature="0"
       sodipodi:nodetypes="ccccc" />
    <path
       style="fill:none;stroke:#4e8500;stroke-width:13.30000019;stroke-linecap:butt;stroke-linejoin:round;stroke-miterlimit:4;stroke-opacity:1;stroke-dasharray:none"
       d="m 34,826.36218 c -16,36 -24,60 -20,100 24,-32 48,-36 84,-48 -12,-4 -34.03585,-8.29084 -46,-10 -10,-10 -16.90642,-29.9706 -18,-42 z"
       id="path3016"
       inkscape:connector-curvature="0"
       sodipodi:nodetypes="ccccc" />
  </g>
</svg>
